<?xml version="1.0" standalone="no"?>
<!DOCTYPE svg PUBLIC "-//W3C//DTD SVG 20010904//EN"
 "http://www.w3.org/TR/2001/REC-SVG-20010904/DTD/svg10.dtd">
<svg version="1.0" xmlns="http://www.w3.org/2000/svg"
 width="260.000000pt" height="260.000000pt" viewBox="0 0 260.000000 260.000000"
 preserveAspectRatio="xMidYMid meet">
<metadata>
Created by potrace 1.11, written by Peter Selinger 2001-2013
</metadata>
<g transform="translate(0.000000,260.000000) scale(0.100000,-0.100000)"
fill="#000000" stroke="none">
<path d="M1301 2515 c-17 -19 -32 -35 -34 -35 -8 0 -517 -513 -517 -521 0 -4
-4 -9 -10 -11 -5 -1 -147 -140 -315 -307 l-305 -304 2 -606 3 -606 1210 0
1210 0 3 604 2 603 -609 609 -609 609 -31 -35z m14 -301 l0 -259 -263 -3
c-244 -2 -263 -4 -260 -20 3 -15 27 -17 263 -22 l260 -5 0 -260 c0 -239 -1
-260 -17 -263 -10 -2 -18 3 -18 11 0 12 -376 396 -489 499 -45 41 -51 58 -21
58 11 0 20 4 20 9 0 14 504 519 515 516 6 -1 10 -96 10 -261z m65 257 c0 -11
480 -491 491 -491 5 0 9 -7 9 -15 0 -13 -33 -15 -262 -13 l-263 3 -3 250 c-1
137 0 255 3 262 5 15 25 18 25 4z m500 -576 c0 -8 6 -15 14 -15 8 0 16 -4 18
-10 2 -5 1 -123 -2 -262 l-5 -253 -253 -3 c-252 -2 -254 -2 -278 20 l-24 23 0
251 c0 138 3 254 7 257 3 4 123 7 265 7 223 0 258 -2 258 -15z m-1162 -261 c2
-131 0 -249 -3 -261 l-5 -23 -260 0 c-150 0 -260 4 -260 9 0 14 503 519 515
516 6 -1 11 -92 13 -241z m306 -10 c141 -141 256 -260 256 -265 0 -6 -106 -8
-262 -7 l-263 3 -3 250 c-2 229 0 275 12 275 2 0 119 -115 260 -256z m956 248
c0 -9 385 -398 463 -468 24 -22 36 -39 30 -45 -5 -5 -117 -8 -264 -7 l-254 3
-3 263 c-2 229 0 262 13 262 8 0 15 -4 15 -8z m-1271 -566 c9 -10 12 -82 10
-261 l-1 -247 -25 -24 -24 -24 -248 0 c-194 0 -251 3 -260 13 -7 9 -10 95 -10
258 l0 244 26 27 25 26 248 1 c204 1 249 -1 259 -13z m582 -15 l27 -28 1 -242
c1 -172 -2 -247 -10 -257 -9 -11 -59 -14 -260 -14 l-248 0 -25 25 -25 25 -1
246 c0 175 3 250 11 261 10 11 57 14 257 12 l245 -1 28 -27z m619 -234 c3
-157 1 -262 -5 -268 -13 -13 -23 -11 -27 6 -2 9 -108 121 -237 250 -205 206
-261 255 -261 229 0 -4 113 -119 250 -257 138 -137 250 -254 250 -258 0 -5
-115 -8 -262 -7 l-263 3 -3 256 c-2 255 -2 257 20 283 l23 25 255 -2 255 -2 5
-258z m579 235 l26 -27 -5 -255 -5 -255 -253 -3 c-252 -2 -254 -2 -278 20
l-24 23 0 257 c0 196 3 258 13 262 6 2 122 5 256 4 l244 0 26 -26z m-1794
-598 c23 -23 23 -25 24 -272 1 -196 -1 -251 -12 -260 -9 -7 -93 -11 -257 -11
l-245 0 -27 26 -26 25 -1 246 c0 170 3 250 11 259 9 11 60 14 260 12 247 -1
250 -2 273 -25z m611 15 c12 -10 14 -56 13 -265 -1 -236 -2 -254 -19 -259 -10
-3 -21 -12 -23 -19 -7 -18 -492 -22 -514 -4 -11 9 -13 62 -13 260 1 241 2 249
23 271 22 23 26 23 270 26 181 1 253 -1 263 -10z m583 -15 c23 -24 23 -25 22
-276 -2 -183 -5 -254 -14 -260 -6 -4 -122 -7 -256 -7 -237 1 -246 1 -268 22
-22 22 -23 24 -23 279 0 196 3 258 13 262 6 2 122 5 257 5 l246 -1 23 -24z
m621 -234 l5 -255 -25 -27 -26 -26 -239 -1 c-132 0 -248 2 -257 5 -17 5 -18
26 -18 261 0 250 0 256 22 278 22 23 23 23 278 22 l255 -2 5 -255z"/>
<path d="M1620 1641 c-129 -131 -234 -241 -233 -245 1 -4 3 -10 6 -12 6 -6
487 473 487 486 0 28 -43 -10 -260 -229z"/>
<path d="M190 1270 c0 -5 109 -119 242 -252 167 -168 244 -238 246 -226 2 11
-79 98 -232 252 -130 130 -241 236 -246 236 -6 0 -10 -4 -10 -10z"/>
<path d="M1022 1043 c-147 -148 -232 -241 -230 -251 2 -11 83 64 246 226 133
134 242 247 242 253 0 27 -45 -13 -258 -228z"/>
<path d="M2216 1039 c-155 -155 -236 -243 -230 -249 7 -7 95 75 252 231 133
133 242 245 242 250 0 27 -47 -14 -264 -232z"/>
<path d="M432 452 c-133 -133 -242 -247 -242 -252 0 -6 4 -10 10 -10 5 0 116
106 245 235 158 157 235 241 233 253 -3 12 -75 -55 -246 -226z"/>
<path d="M785 680 c-6 -10 469 -490 486 -490 5 0 9 4 9 10 0 9 -476 490 -485
490 -2 0 -7 -4 -10 -10z"/>
<path d="M1624 447 c-127 -128 -234 -238 -238 -244 -4 -8 -1 -13 7 -13 14 0
478 459 485 480 13 37 -50 -18 -254 -223z"/>
<path d="M1985 680 c-4 -7 86 -105 231 -250 215 -215 264 -258 264 -232 0 7
-384 397 -463 470 -17 16 -27 20 -32 12z"/>
</g>
</svg>
